<?xml version="1.0" encoding="utf-8"?>
<svg version="1.1" xmlns:xlink="http://www.w3.org/1999/xlink" width="514px" height="170px" xmlns="http://www.w3.org/2000/svg">
  <g transform="matrix(1 0 0 1 -25 -777 )">
    <path d="M 25 777  L 539 777  L 539 947  L 25 947  L 25 777  " fill-rule="nonzero" fill="#cccccc" stroke="none" />
    <path d="M 37 789  L 527 789  L 527 935  L 37 935  L 37 789  " fill-rule="nonzero" fill="#ffffff" stroke="none" />
    <path d="M 305.03000000000003 828  C 297.89000000000004 828  292.28000000000003 822.39  292.28000000000003 815.25  C 292.28000000000003 808.11  297.89000000000004 802.5  305.03000000000003 802.5  C 312.17 802.5  317.78000000000003 808.11  317.78000000000003 815.25  C 317.78000000000003 822.39  312.17 828  305.03000000000003 828  " fill-rule="nonzero" fill="#cccccc" stroke="none" />
    <path d="M 42 931  L 42 855.65  L 162.25 821.4  L 330.59999999999997 903.8132295719845  L 426.8 841.95  L 523 903.8132295719845  L 523 931  L 42 931  " fill-rule="nonzero" fill="#169bd5" stroke="none" />
  </g>
</svg>