<?xml version="1.0" encoding="utf-8"?>
<svg version="1.1" xmlns:xlink="http://www.w3.org/1999/xlink" width="499px" height="170px" xmlns="http://www.w3.org/2000/svg">
  <g transform="matrix(1 0 0 1 -40 -1128 )">
    <path d="M 40 1128  L 539 1128  L 539 1298  L 40 1298  L 40 1128  " fill-rule="nonzero" fill="#cccccc" stroke="none" />
    <path d="M 52 1140  L 527 1140  L 527 1286  L 52 1286  L 52 1140  " fill-rule="nonzero" fill="#ffffff" stroke="none" />
    <path d="M 312.23 1179  C 305.09000000000003 1179  299.48 1173.39  299.48 1166.25  C 299.48 1159.11  305.09000000000003 1153.5  312.23 1153.5  C 319.37 1153.5  324.98 1159.11  324.98 1166.25  C 324.98 1173.39  319.37 1179  312.23 1179  " fill-rule="nonzero" fill="#cccccc" stroke="none" />
    <path d="M 57 1282  L 57 1206.65  L 173.5 1172.4  L 336.59999999999997 1253.995991983968  L 429.8 1192.95  L 523 1253.995991983968  L 523 1282  L 57 1282  " fill-rule="nonzero" fill="#169bd5" stroke="none" />
  </g>
</svg>