<?xml version="1.0" encoding="utf-8"?>
<svg version="1.1" xmlns:xlink="http://www.w3.org/1999/xlink" width="502px" height="170px" xmlns="http://www.w3.org/2000/svg">
  <g transform="matrix(1 0 0 1 -45 -1477 )">
    <path d="M 45 1477  L 547 1477  L 547 1647  L 45 1647  L 45 1477  " fill-rule="nonzero" fill="#cccccc" stroke="none" />
    <path d="M 57 1489  L 535 1489  L 535 1635  L 57 1635  L 57 1489  " fill-rule="nonzero" fill="#ffffff" stroke="none" />
    <path d="M 318.79 1528  C 311.65000000000003 1528  306.04 1522.39  306.04 1515.25  C 306.04 1508.11  311.65000000000003 1502.5  318.79 1502.5  C 325.93 1502.5  331.54 1508.11  331.54 1515.25  C 331.54 1522.39  325.93 1528  318.79 1528  " fill-rule="nonzero" fill="#cccccc" stroke="none" />
    <path d="M 62 1631  L 62 1555.65  L 179.25 1521.4  L 343.4 1603.1633466135459  L 437.20000000000005 1541.95  L 531 1603.1633466135459  L 531 1631  L 62 1631  " fill-rule="nonzero" fill="#169bd5" stroke="none" />
  </g>
</svg>