<?xml version="1.0" encoding="utf-8"?>
<svg version="1.1" xmlns:xlink="http://www.w3.org/1999/xlink" width="330px" height="170px" xmlns="http://www.w3.org/2000/svg">
  <g transform="matrix(1 0 0 1 -25 -777 )">
    <path d="M 25 777  L 355 777  L 355 947  L 25 947  L 25 777  " fill-rule="nonzero" fill="#cccccc" stroke="none" />
    <path d="M 37 789  L 343 789  L 343 935  L 37 935  L 37 789  " fill-rule="nonzero" fill="#ffffff" stroke="none" />
    <path d="M 209.35 828  C 202.20999999999998 828  196.6 822.39  196.6 815.25  C 196.6 808.11  202.20999999999998 802.5  209.35 802.5  C 216.49 802.5  222.1 808.11  222.1 815.25  C 222.1 822.39  216.49 828  209.35 828  " fill-rule="nonzero" fill="#cccccc" stroke="none" />
    <path d="M 42 931  L 42 855.65  L 116.25 821.4  L 220.2 888.6545454545454  L 279.6 841.95  L 339 888.6545454545454  L 339 931  L 42 931  " fill-rule="nonzero" fill="#169bd5" stroke="none" />
  </g>
</svg>