<?xml version="1.0" encoding="utf-8"?>
<svg version="1.1" xmlns:xlink="http://www.w3.org/1999/xlink" width="361px" height="170px" xmlns="http://www.w3.org/2000/svg">
  <g transform="matrix(1 0 0 1 -398 -777 )">
    <path d="M 398 777  L 759 777  L 759 947  L 398 947  L 398 777  " fill-rule="nonzero" fill="#cccccc" stroke="none" />
    <path d="M 410 789  L 747 789  L 747 935  L 410 935  L 410 789  " fill-rule="nonzero" fill="#ffffff" stroke="none" />
    <path d="M 598.47 828  C 591.33 828  585.72 822.39  585.72 815.25  C 585.72 808.11  591.33 802.5  598.47 802.5  C 605.61 802.5  611.22 808.11  611.22 815.25  C 611.22 822.39  605.61 828  598.47 828  " fill-rule="nonzero" fill="#cccccc" stroke="none" />
    <path d="M 415 931  L 415 855.65  L 497 821.4  L 611.8 892.2908587257617  L 677.4000000000001 841.95  L 743 892.2908587257617  L 743 931  L 415 931  " fill-rule="nonzero" fill="#169bd5" stroke="none" />
  </g>
</svg>