<?xml version="1.0" encoding="utf-8"?>
<svg version="1.1" xmlns:xlink="http://www.w3.org/1999/xlink" width="343px" height="170px" xmlns="http://www.w3.org/2000/svg">
  <g transform="matrix(1 0 0 1 -798 -777 )">
    <path d="M 798 777  L 1141 777  L 1141 947  L 798 947  L 798 777  " fill-rule="nonzero" fill="#cccccc" stroke="none" />
    <path d="M 810 789  L 1129 789  L 1129 935  L 810 935  L 810 789  " fill-rule="nonzero" fill="#ffffff" stroke="none" />
    <path d="M 989.11 828  C 981.97 828  976.36 822.39  976.36 815.25  C 976.36 808.11  981.97 802.5  989.11 802.5  C 996.25 802.5  1001.86 808.11  1001.86 815.25  C 1001.86 822.39  996.25 828  989.11 828  " fill-rule="nonzero" fill="#cccccc" stroke="none" />
    <path d="M 815 931  L 815 855.65  L 892.5 821.4  L 1001 890.2594752186588  L 1063 841.95  L 1125 890.2594752186588  L 1125 931  L 815 931  " fill-rule="nonzero" fill="#169bd5" stroke="none" />
  </g>
</svg>