<?xml version="1.0" encoding="utf-8"?>
<svg version="1.1" xmlns:xlink="http://www.w3.org/1999/xlink" width="252px" height="178px" xmlns="http://www.w3.org/2000/svg">
  <g transform="matrix(1 0 0 1 -676 -1258 )">
    <path d="M 676 1258  L 928 1258  L 928 1436  L 676 1436  L 676 1258  " fill-rule="nonzero" fill="#cccccc" stroke="none" />
    <path d="M 688 1270  L 916 1270  L 916 1424  L 688 1424  L 688 1270  " fill-rule="nonzero" fill="#ffffff" stroke="none" />
    <path d="M 820.39 1311.4  C 812.914 1311.4  807.04 1305.526  807.04 1298.0500000000002  C 807.04 1290.574  812.914 1284.7  820.39 1284.7  C 827.866 1284.7  833.74 1290.574  833.74 1298.0500000000002  C 833.74 1305.526  827.866 1311.4  820.39 1311.4  " fill-rule="nonzero" fill="#cccccc" stroke="none" />
    <path d="M 693 1420  L 693 1340.25  L 747.75 1304  L 824.4 1358.547619047619  L 868.2 1325.75  L 912 1358.547619047619  L 912 1420  L 693 1420  " fill-rule="nonzero" fill="#169bd5" stroke="none" />
  </g>
</svg>